<svg xmlns="http://www.w3.org/2000/svg" xmlns:xlink="http://www.w3.org/1999/xlink" version="1.1" x="0px" y="0px" viewBox="0 0 90 112.5" enable-background="new 0 0 90 90" xml:space="preserve"><g><g><g><path d="M36.73633,29.86523c-0.03467,0.23828-0.06055,0.48926-0.06055,0.73633c0,3.5498,3.72705,6.40723,8.3335,6.40723     c4.59277,0,8.31592-2.85742,8.31592-6.40723c0-0.24707-0.02148-0.49805-0.05615-0.73633H36.73633z M33.53271,29.43262h22.93994     c0.04736,0.33398,0.08203,0.67969,0.08203,1.02148c0,4.91406-5.17334,8.90137-11.54541,8.90137     c-6.38574,0-11.5459-3.9873-11.5459-8.90137C33.46338,30.1123,33.48486,29.7666,33.53271,29.43262z"/><path d="M46.94434,30.83984c0.53223,0,0.96973,0.43262,0.96973,0.96973s-0.4375,0.96973-0.96973,0.96973     c-0.53711,0-0.97412-0.43262-0.97412-0.96973S46.40723,30.83984,46.94434,30.83984z"/><path d="M45.66699,69.71484c0,0-0.00439,0-0.00439,0.00391c-0.06934-0.22949-0.12988-0.46289-0.19482-0.69629     c-0.03467-0.12598-0.07324-0.25098-0.10791-0.38086c-0.12549-0.47266-0.24707-0.94824-0.35938-1.43359     c-0.24707,1.05664-0.51953,2.08301-0.83105,3.07813c-0.00879,0.03516-0.01758,0.06934-0.02637,0.09961     c-0.00391,0-0.00391,0.00488-0.00391,0.00488c-0.89648,2.87012-2.06543,5.48438-3.59766,7.74414     c-1.02588,1.51563-2.26855,2.22559-3.62354,2.30273v3.69727v0.67578v0.94824h-1.01318h-4.44141     c0,0,2.11279-1.72754,3.23828-2.38965v-3.3125c-4.68408-1.77051-9.94824-9.28516-12.19531-16.73535     c-0.00439-0.01367-0.00439-0.02246-0.0083-0.03125c-0.11279-0.37207-0.2168-0.74023-0.31201-1.10742     c0-0.01367-0.00439-0.02246-0.00439-0.03027c-0.29004-1.1084-0.50195-2.20801-0.63184-3.27734     c-0.00439-0.03516-0.00879-0.06543-0.01318-0.09961c-0.03857-0.3291-0.06885-0.6582-0.09082-0.98242     c-0.00439-0.04395-0.00879-0.08691-0.00879-0.12988c-0.02148-0.32031-0.03418-0.64063-0.03857-0.95703     c0-0.03516,0-0.06934,0-0.10352c0-0.3252,0.00439-0.64551,0.02148-0.96582C21,58.2168,20.57129,60.79297,20.15137,63.37695     c-5.1123-4.37207-3.56689-15.30762-1.91748-21.28613c-1.5542,1.21191-3.1084,2.41602-4.67139,3.62793     c0,0,0.2124-9.19531,5.95264-16.93555c0.3418-0.45898,0.69287-0.9043,1.04346-1.3457     c0.04736-0.05664,0.09521-0.11719,0.14258-0.17383c0.34229-0.41992,0.69287-0.82617,1.04346-1.22461     c0.05615-0.06543,0.1167-0.12598,0.17334-0.19043c0.35889-0.39844,0.71826-0.78418,1.08643-1.16016     c0.04346-0.03906,0.08643-0.08301,0.12549-0.12598c0.7749-0.7793,1.57129-1.51074,2.38525-2.19434     c0.04346-0.03906,0.08691-0.07813,0.12988-0.11719c0.39404-0.3252,0.79248-0.64063,1.19482-0.94434     c0.05615-0.04297,0.11279-0.08594,0.17334-0.12891c0.29883-0.22559,0.60156-0.44629,0.90479-0.6582     c-2.06055-0.70996-4.26416-1.85352-5.95703-3.71484c-4.38525-4.80957-3.70996-12.5625-3.70996-12.5625     s7.78369,0.05176,12.16895,4.86133c2.20361,2.41602,3.12598,5.57617,3.50244,8.12109     c0.03467-0.0127,0.06934-0.02539,0.09961-0.04297c0.92627-0.37695,1.86133-0.70605,2.80518-0.98242     c0.04736-0.01367,0.09521-0.03027,0.13867-0.04395c0.4585-0.12988,0.91309-0.25098,1.37207-0.36328     c0.05225-0.00879,0.1084-0.02148,0.16016-0.03516c0.46777-0.10742,0.93506-0.20703,1.40723-0.29395     c0.01709,0,0.03857-0.00391,0.05615-0.00879c0.97852-0.17285,1.96094-0.29883,2.94824-0.36816     c0.03027-0.00391,0.06055-0.00879,0.09521-0.00879c0.48047-0.03418,0.96094-0.05566,1.4458-0.06445     c0.03027,0,0.06494,0,0.09521,0c1.51074-0.02637,3.01709,0.06934,4.51953,0.28613c0.00439,0,0.00439,0,0.00879,0     c1.41113,0.20313,2.81396,0.51465,4.19922,0.93066c0.4585-2.34277,1.41113-5.01758,3.33301-7.12598     c4.38574-4.80957,12.16943-4.86133,12.16943-4.86133s0.6709,7.75293-3.71436,12.5625     c-1.19092,1.30762-2.63232,2.26465-4.104,2.96094c3.49365,2.22559,6.73145,5.22949,9.53662,9.01758     c5.73193,7.74023,5.94385,16.93555,5.94385,16.93555c-1.5542-1.21191-3.1167-2.41602-4.6709-3.62793     c1.64941,5.97852,3.20361,16.91406-1.91357,21.28613c-0.42432-2.58398-0.85254-5.16016-1.27246-7.74023     c0.5498,9.8877-8.39404,24.49414-15.03076,24.80566v2.92676c1.12109,0.66211,3.23828,2.38965,3.23828,2.38965h-4.44189h-1.0127     v-0.94824v-0.67578v-4.19922c-0.67969-0.37598-1.31201-0.96484-1.87451-1.80078     C47.81885,75.69727,46.58936,72.84863,45.66699,69.71484z M61.81885,29.87402c0-0.50195-0.04346-1.00391-0.1084-1.49316H28.29443     c-0.06934,0.48926-0.1084,0.99121-0.1084,1.49316c0,7.14746,7.53271,12.95313,16.82324,12.95313     C54.29492,42.82715,61.81885,37.02148,61.81885,29.87402z M31.36816,52.58008h27.26904     c-0.18652-0.21582-0.67969-0.41992-1.42871-0.60547c-0.50244-1.52832-1.69727-4.63281-1.69727-4.63281l-1.46729,4.11719     c-2.41553-0.26855-5.58008-0.42871-9.04785-0.42871c-3.25098,0-6.23389,0.14355-8.58447,0.38086     c-0.55859-1.61914-1.49805-4.06934-1.49805-4.06934l-1.61914,4.51953C32.26416,52.07422,31.59326,52.31641,31.36816,52.58008z      M57.11328,26.70508c-2.26416-2.78711-6.83594-4.69238-12.11279-4.69238c-5.27734,0-9.84863,1.90527-12.11279,4.69238     c3.07813-1.99512,7.36816-3.2334,12.11279-3.2334S54.03516,24.70996,57.11328,26.70508z"/><path d="M42.06543,30.29883c1.21191,0,2.18164,0.97363,2.18164,2.18555c0,1.20801-0.96973,2.19531-2.18164,2.19531     c-1.2124,0-2.18652-0.9873-2.18652-2.19531C39.87891,31.27246,40.85303,30.29883,42.06543,30.29883z"/></g></g></g><text x="0" y="105" fill="#000000" font-size="5px" font-weight="bold" font-family="'Helvetica Neue', Helvetica, Arial-Unicode, Arial, Sans-serif">Created by Kidaha</text><text x="0" y="110" fill="#000000" font-size="5px" font-weight="bold" font-family="'Helvetica Neue', Helvetica, Arial-Unicode, Arial, Sans-serif">from the Noun Project</text></svg>